<svg width="264" height="258" viewBox="0 0 264 258" fill="none" xmlns="http://www.w3.org/2000/svg">
<path d="M263.952 249.054L244.865 78.3832C244.427 74.4685 241.117 71.5084 237.179 71.5084H26.797C22.8576 71.5084 19.5473 74.469 19.1105 78.3841L0.0479886 249.055C-0.196416 251.243 0.502768 253.43 1.97023 255.071C3.43769 256.711 5.5337 257.648 7.7349 257.648H256.266C258.467 257.648 260.564 256.711 262.031 255.071C263.498 253.43 264.197 251.242 263.952 249.054Z" fill="#E13A3A"/>
<path d="M263.952 249.054L244.865 78.3829C244.427 74.4682 241.117 71.5081 237.179 71.5081H132V257.648H256.266C258.467 257.648 260.563 256.71 262.031 255.069C263.498 253.429 264.197 251.241 263.952 249.054Z" fill="#F74D4D"/>
<path d="M82.2428 127.453C90.7859 127.453 97.7115 120.528 97.7115 111.985C97.7115 103.442 90.7859 96.5161 82.2428 96.5161C73.6996 96.5161 66.774 103.442 66.774 111.985C66.774 120.528 73.6996 127.453 82.2428 127.453Z" fill="#2E2E2E"/>
<path d="M181.758 127.453C190.301 127.453 197.226 120.528 197.226 111.985C197.226 103.441 190.301 96.5158 181.758 96.5158C173.214 96.5158 166.289 103.441 166.289 111.985C166.289 120.528 173.214 127.453 181.758 127.453Z" fill="#1A1A1A"/>
<path d="M181.758 117.142C177.487 117.142 174.024 113.678 174.024 109.407V57.8443C174.024 34.6726 155.172 15.8208 132 15.8208C108.829 15.8208 89.9771 34.6726 89.9771 57.8443V109.407C89.9771 113.678 86.5142 117.142 82.2428 117.142C77.9714 117.142 74.5084 113.678 74.5084 109.407V57.8443C74.5084 26.1431 100.299 0.352081 132 0.352081C163.702 0.352081 189.493 26.1431 189.493 57.8443V109.407C189.493 113.678 186.03 117.142 181.758 117.142Z" fill="#FFF4F4"/>
<path d="M132 0.352081V15.8208C155.172 15.8208 174.024 34.6726 174.024 57.8443V109.407C174.024 113.678 177.486 117.142 181.758 117.142C186.029 117.142 189.492 113.678 189.492 109.407V57.8443C189.492 26.1431 163.702 0.352081 132 0.352081Z" fill="#F6EFEA"/>
</svg>
